<svg xmlns="http://www.w3.org/2000/svg" width="16" height="16" fill="currentColor" class="bi bi-grid-1x2" viewBox="0 0 16 16">
<path xmlns="http://www.w3.org/2000/svg" d="M2288.3052978515625,481.10010528564453 c0,-31.27842903137207 -37.89292526245117,-58.057769775390625 -43.062679290771484,-86.06388092041016 c-5.672760486602783,-30.86205291748047 18.080177307128906,-71.89315795898438 3.0739097595214844,-96.64651489257812 c-15.034213066101074,-24.823219299316406 -60.30451965332031,-21.070253372192383 -87.913818359375,-37.51008224487305 c-22.85871124267578,-13.595064163208008 -37.8649787902832,-57.280906677246094 -71.31470489501953,-63.736122131347656 c-26.10028839111328,-5.04121208190918 -59.158790588378906,28.17657470703125 -92.72029876708984,28.17657470703125 c-33.393836975097656,0 -66.46351623535156,-33.1143913269043 -92.54983520507812,-27.925073623657227 C1870.6839599609375,203.98430633544922 1856.024169921875,247.76238250732422 1833.2017822265625,261.56981658935547 c-27.265579223632812,16.492923736572266 -72.58059692382812,12.72319221496582 -87.74056243896484,37.482139587402344 c-15.095690727233887,24.655550003051758 8.32470703125,65.7453384399414 2.414416551589966,96.4145736694336 C1742.4935302734375,423.38883209228516 1704.44970703125,449.9278335571289 1704.4580688476562,481.10010528564453 c-0.008383390493690968,28.950639724731445 39.5975456237793,48.59571838378906 47.90827941894531,71.48237609863281 c9.389396667480469,25.848787307739258 -6.228858947753906,66.81562042236328 11.996631622314453,85.25907897949219 c18.071794509887695,18.303735733032227 60.4218864440918,3.8284149169921875 85.32335662841797,15.201881408691406 c3.043170690536499,1.3972316980361938 10.074040412902832,2.598850965499878 19.98879623413086,3.6048576831817627 c40.80754852294922,38.45181655883789 89.89229583740234,62.65187072753906 121.91405487060547,62.65187072753906 c33.22616958618164,0 85.65029907226562,-23.97649574279785 127.5672607421875,-62.26064682006836 c11.988247871398926,-1.1177853345870972 20.483415603637695,-2.431183099746704 23.892662048339844,-3.9960825443267822 c24.89866828918457,-11.373466491699219 67.26273345947266,3.1018543243408203 85.3429183959961,-15.201881408691406 c18.21990203857422,-18.443458557128906 2.598850965499878,-59.41029357910156 11.988247871398926,-85.25907897949219 c8.299556732177734,-22.886653900146484 47.925045013427734,-42.531734466552734 47.925045013427734,-71.48237609863281 z" sketchjs:uid="19" xmlns:sketchjs="https://sketch.io/dtd/" style="stroke: rgb(0, 0, 0); stroke-width: 4px; stroke-linecap: round; stroke-linejoin: round;" stroke-width="0" id="svg_20" class="" fill="#6767e7" fill-opacity="1"/>
</svg>